<svg id="Capa_1" enable-background="new 0 0 512 512" height="512" viewBox="0 0 512 512" width="512" xmlns="http://www.w3.org/2000/svg"><g><g><path d="m504.5 136v312c0 11.046-8.954 20-20 20h-457c-11.046 0-20-8.954-20-20v-312z" fill="#faf8f8"/><path d="m316 233.5c0 13.96-4.768 26.807-12.763 37-10.984 14.003-28.06 17.776-47.237 17.776-33.137 0-53.298-21.639-53.298-54.777 0-16.269-.227-31.025 10.286-41.833 10.901-11.205 26.144-18.166 43.012-18.166 33.137 0 60 26.863 60 60z" fill="#f2d1a5"/><path d="m306.55 265.84c-10.67 16.64-29.32 27.66-50.55 27.66-33.14 0-60-26.86-60-60 0-19.83 9.62-37.42 24.45-48.33-5.98 9.33-9.45 20.42-9.45 32.33 0 33.14 26.86 60 60 60 13.31 0 25.6-4.33 35.55-11.66z" fill="#f2bb88"/><path d="m504.5 156v-20l-276.011-12.798-220.989 12.798v20 292c0 11.046 8.954 20 20 20h15c-8.28 0-15-6.72-15-15v-291c0-3.314 2.686-6 6-6z" fill="#f0e9e6"/><path d="m504.5 64v72.5h-497v-72.5c0-11.046 8.954-20 20-20h457c11.046 0 20 8.954 20 20z" fill="#5d748a"/><g fill="#3f597d"><path d="m235.258 116c-8.255 0-14.947-6.716-14.947-15s6.692-15 14.947-15h208.315c8.255 0 14.947 6.716 14.947 15s-6.692 15-14.947 15z"/><ellipse cx="168.369" cy="101" rx="14.947" ry="15"/><path d="m178.861 111.684 12.874-12.869-13.139 1.179z"/><path d="m158.092 90.108 12.562-12.516-2.693 10.408z"/><ellipse cx="105.534" cy="101" rx="14.947" ry="15"/><path d="m116.053 111.657 12.382-12.499-12.674.836z"/><path d="m95.257 90.108 12.371-12.459-2.502 10.351z"/><ellipse cx="40.447" cy="101" rx="14.947" ry="15"/><path d="m51.269 111.346 12.721-13.186-13.139 1.381z"/><path d="m30.17 90.108 11.622-12.038-1.753 9.93z"/></g><ellipse cx="181.349" cy="88" fill="#b7e546" rx="14.947" ry="15"/><path d="m225.014 90.077 12.971-12.991-3.025 14.276z" fill="#3f597d"/><path d="m454.33 111.415 13.149-13.179-10.185 3.381z" fill="#3f597d"/><ellipse cx="118.446" cy="88" fill="#ffbf54" rx="14.947" ry="15"/><ellipse cx="52.995" cy="88" fill="#dc4955" rx="14.947" ry="15"/><path d="m248.237 103c-8.255 0-14.947-6.716-14.947-15s6.692-15 14.947-15h208.315c8.255 0 14.947 6.716 14.947 15s-6.692 15-14.947 15z" fill="#faf8f8"/><path d="m109 334h294c11.046 0 20 8.954 20 20v22c0 11.046-8.954 20-20 20h-294c-11.046 0-20-8.954-20-20v-22c0-11.046 8.954-20 20-20z" fill="#f0e9e6"/></g><g><path d="m29.36 89c0 12.406 10.121 22.5 22.561 22.5s22.56-10.094 22.56-22.5-10.12-22.5-22.56-22.5-22.561 10.094-22.561 22.5zm30.121 0c0 4.136-3.392 7.5-7.561 7.5s-7.56-3.364-7.56-7.5 3.392-7.5 7.561-7.5 7.56 3.364 7.56 7.5z"/><path d="m139.744 89c0-12.406-10.121-22.5-22.561-22.5s-22.56 10.094-22.56 22.5 10.121 22.5 22.561 22.5 22.56-10.094 22.56-22.5zm-30.121 0c0-4.136 3.392-7.5 7.561-7.5s7.561 3.364 7.561 7.5-3.392 7.5-7.561 7.5-7.561-3.364-7.561-7.5z"/><path d="m203.125 89c0-12.406-10.121-22.5-22.561-22.5s-22.561 10.094-22.561 22.5 10.121 22.5 22.561 22.5 22.561-10.094 22.561-22.5zm-30.122 0c0-4.136 3.392-7.5 7.561-7.5s7.561 3.364 7.561 7.5-3.392 7.5-7.561 7.5-7.561-3.364-7.561-7.5z"/><path d="m458.809 111.5c12.44 0 22.561-10.094 22.561-22.5s-10.121-22.5-22.561-22.5h-210.849c-12.44 0-22.561 10.094-22.561 22.5s10.121 22.5 22.561 22.5zm-218.41-22.5c0-4.136 3.392-7.5 7.561-7.5h210.849c4.169 0 7.561 3.364 7.561 7.5s-3.392 7.5-7.561 7.5h-210.849c-4.169 0-7.561-3.364-7.561-7.5z"/><path d="m484.5 34h-391.5c-4.142 0-7.5 3.357-7.5 7.5s3.358 7.5 7.5 7.5h391.5c6.893 0 12.5 5.607 12.5 12.5v64.5h-482v-64.5c0-6.893 5.607-12.5 12.5-12.5h30.5c4.142 0 7.5-3.357 7.5-7.5s-3.358-7.5-7.5-7.5h-30.5c-15.164 0-27.5 12.336-27.5 27.5v389c0 15.164 12.336 27.5 27.5 27.5h457c15.164 0 27.5-12.336 27.5-27.5v-227.5c0-4.143-3.358-7.5-7.5-7.5s-7.5 3.357-7.5 7.5v227.5c0 6.893-5.607 12.5-12.5 12.5h-457c-6.893 0-12.5-5.607-12.5-12.5v-309.5h482v47c0 4.143 3.358 7.5 7.5 7.5s7.5-3.357 7.5-7.5v-126.5c0-15.163-12.336-27.5-27.5-27.5z"/><path d="m318.708 388.5c-4.142 0-7.5 3.357-7.5 7.5s3.358 7.5 7.5 7.5h84.292c15.164 0 27.5-12.337 27.5-27.5v-22c0-15.163-12.336-27.5-27.5-27.5h-294c-15.164 0-27.5 12.337-27.5 27.5v22c0 15.163 12.336 27.5 27.5 27.5h174.267c4.142 0 7.5-3.357 7.5-7.5s-3.358-7.5-7.5-7.5h-174.267c-6.893 0-12.5-5.607-12.5-12.5v-22c0-6.893 5.607-12.5 12.5-12.5h240v47zm45.292-47h39c6.893 0 12.5 5.607 12.5 12.5v22c0 6.893-5.607 12.5-12.5 12.5h-39z"/><path d="m124.5 364c-4.142 0-7.5 3.357-7.5 7.5s3.358 7.5 7.5 7.5h29c4.142 0 7.5-3.357 7.5-7.5s-3.358-7.5-7.5-7.5z"/><path d="m211.135 274.036c-2.707 3.135-2.359 7.871.776 10.578 12.242 10.567 27.9 16.386 44.089 16.386 37.22 0 67.5-30.28 67.5-67.5s-30.28-67.5-67.5-67.5-67.5 30.28-67.5 67.5c0 5.667.705 11.301 2.095 16.744 1.025 4.015 5.109 6.437 9.123 5.411 4.013-1.024 6.436-5.109 5.411-9.122-1.081-4.231-1.628-8.617-1.628-13.033 0-28.948 23.551-52.5 52.5-52.5s52.5 23.552 52.5 52.5-23.552 52.5-52.501 52.5c-12.592 0-24.769-4.524-34.287-12.741-3.136-2.705-7.872-2.36-10.578.777z"/><path d="m234.071 264.775c3.022 0 5.871-1.84 7.01-4.833l3.355-8.809h23.157l3.316 8.788c1.462 3.873 5.788 5.831 9.665 4.368 3.875-1.462 5.832-5.789 4.369-9.665l-20.667-54.767c-.026-.069-.054-.139-.082-.207-1.357-3.297-4.535-5.424-8.099-5.424-.003 0-.007 0-.01 0-3.568.004-6.746 2.141-8.097 5.442-.023.057-.046.113-.067.171l-20.857 54.764c-1.474 3.87.468 8.203 4.339 9.678.879.336 1.781.494 2.668.494zm21.998-44.182 5.865 15.541h-11.784z"/></g></g></svg>